<svg width="110" height="50" viewBox="0 0 110 50" fill="none" xmlns="http://www.w3.org/2000/svg">
<rect x="0.5" y="0.5" width="109" height="49" rx="14.5" fill="white"/>
<rect x="0.5" y="0.5" width="109" height="49" rx="14.5" stroke="#FE5F00"/>
<path d="M32.5706 30.2083V28.8194C32.5706 28.0827 32.2921 27.3762 31.7966 26.8553C31.301 26.3343 30.6288 26.0417 29.9279 26.0417H24.6426C23.9418 26.0417 23.2696 26.3343 22.774 26.8553C22.2784 27.3762 22 28.0827 22 28.8194V30.2083" stroke="#FE5F00" stroke-width="1.5" stroke-linecap="round" stroke-linejoin="round"/>
<path d="M27.2852 23.2639C28.7447 23.2639 29.9279 22.0202 29.9279 20.4861C29.9279 18.952 28.7447 17.7083 27.2852 17.7083C25.8257 17.7083 24.6426 18.952 24.6426 20.4861C24.6426 22.0202 25.8257 23.2639 27.2852 23.2639Z" stroke="#FE5F00" stroke-width="1.5" stroke-linecap="round" stroke-linejoin="round"/>
<path d="M42.7403 30C42.143 30 41.8443 29.7013 41.8443 29.104V19.616C41.8443 19.0187 42.143 18.72 42.7403 18.72H46.5483C47.7217 18.72 48.6283 18.9813 49.2683 19.504C49.919 20.016 50.2443 20.736 50.2443 21.664C50.2443 22.272 50.0843 22.7947 49.7643 23.232C49.4443 23.6693 49.007 23.9893 48.4523 24.192C49.103 24.3627 49.6097 24.6773 49.9723 25.136C50.335 25.5947 50.5163 26.176 50.5163 26.88C50.5163 27.8827 50.1803 28.656 49.5083 29.2C48.847 29.7333 47.9243 30 46.7403 30H42.7403ZM43.4443 23.648H46.2923C47.8497 23.648 48.6283 23.04 48.6283 21.824C48.6283 20.608 47.8497 20 46.2923 20H43.4443V23.648ZM43.4443 28.72H46.5483C48.1163 28.72 48.9003 28.0853 48.9003 26.816C48.9003 25.5573 48.1163 24.928 46.5483 24.928H43.4443V28.72ZM56.0626 30.144C55.2733 30.144 54.5906 29.9787 54.0146 29.648C53.4386 29.3173 52.9906 28.8533 52.6706 28.256C52.3613 27.648 52.2066 26.928 52.2066 26.096C52.2066 25.264 52.3613 24.5493 52.6706 23.952C52.9906 23.344 53.4386 22.8747 54.0146 22.544C54.5906 22.2133 55.2733 22.048 56.0626 22.048C56.8306 22.048 57.5026 22.2133 58.0786 22.544C58.6546 22.8747 59.1026 23.344 59.4226 23.952C59.7426 24.5493 59.9026 25.264 59.9026 26.096C59.9026 26.928 59.7426 27.648 59.4226 28.256C59.1026 28.8533 58.6546 29.3173 58.0786 29.648C57.5026 29.9787 56.8306 30.144 56.0626 30.144ZM56.0626 28.896C56.7239 28.896 57.2573 28.656 57.6626 28.176C58.0679 27.696 58.2706 27.0027 58.2706 26.096C58.2706 25.1893 58.0679 24.5013 57.6626 24.032C57.2573 23.552 56.7239 23.312 56.0626 23.312C55.3906 23.312 54.8519 23.552 54.4466 24.032C54.0413 24.5013 53.8386 25.1893 53.8386 26.096C53.8386 27.0027 54.0413 27.696 54.4466 28.176C54.8519 28.656 55.3906 28.896 56.0626 28.896ZM62.641 30.112C62.1396 30.112 61.889 29.824 61.889 29.248V22.864C61.889 22.3413 62.1343 22.08 62.625 22.08C63.1156 22.08 63.361 22.3413 63.361 22.864V27.856L67.281 22.608C67.377 22.4693 67.4943 22.3467 67.633 22.24C67.7716 22.1333 67.9636 22.08 68.209 22.08C68.6996 22.08 68.945 22.368 68.945 22.944V29.328C68.945 29.8507 68.705 30.112 68.225 30.112C67.7236 30.112 67.473 29.8507 67.473 29.328V24.352L63.553 29.6C63.457 29.728 63.3396 29.8453 63.201 29.952C63.0623 30.0587 62.8756 30.112 62.641 30.112ZM65.425 21.2C64.817 21.2 64.2676 21.056 63.777 20.768C63.297 20.4693 62.9503 20.032 62.737 19.456C62.609 19.104 62.6943 18.8747 62.993 18.768C63.2703 18.672 63.489 18.7893 63.649 19.12C64.001 19.8773 64.593 20.256 65.425 20.256C66.2463 20.256 66.8383 19.8773 67.201 19.12C67.361 18.7893 67.5796 18.672 67.857 18.768C67.9956 18.8213 68.0863 18.9067 68.129 19.024C68.1823 19.1413 68.1716 19.2853 68.097 19.456C67.5636 20.6187 66.673 21.2 65.425 21.2ZM73.8213 30.112C73.2773 30.112 73.0053 29.84 73.0053 29.296V23.488H70.8293C70.36 23.488 70.1253 23.2693 70.1253 22.832C70.1253 22.4053 70.36 22.192 70.8293 22.192H76.7973C77.2667 22.192 77.5013 22.4053 77.5013 22.832C77.5013 23.2693 77.2667 23.488 76.7973 23.488H74.6213V29.296C74.6213 29.84 74.3547 30.112 73.8213 30.112ZM79.4378 30.112C78.9365 30.112 78.6858 29.824 78.6858 29.248V22.864C78.6858 22.3413 78.9312 22.08 79.4218 22.08C79.9125 22.08 80.1578 22.3413 80.1578 22.864V27.856L84.0778 22.608C84.1738 22.4693 84.2912 22.3467 84.4298 22.24C84.5685 22.1333 84.7605 22.08 85.0058 22.08C85.4965 22.08 85.7418 22.368 85.7418 22.944V29.328C85.7418 29.8507 85.5018 30.112 85.0218 30.112C84.5205 30.112 84.2698 29.8507 84.2698 29.328V24.352L80.3498 29.6C80.2538 29.728 80.1365 29.8453 79.9978 29.952C79.8592 30.0587 79.6725 30.112 79.4378 30.112Z" fill="#FE5F00"/>
</svg>
